<svg xmlns="http://www.w3.org/2000/svg" xmlns:xlink="http://www.w3.org/1999/xlink" width="182" zoomAndPan="magnify" viewBox="0 0 136.5 95.999999" height="128" preserveAspectRatio="xMidYMid meet" version="1.0"><defs><clipPath id="afe5f75534"><path d="M 51.988281 34.359375 L 79 34.359375 L 79 61.261719 L 51.988281 61.261719 Z M 51.988281 34.359375 " clip-rule="nonzero"/></clipPath><clipPath id="5fdfb09482"><path d="M 80 57 L 84 57 L 84 61.261719 L 80 61.261719 Z M 80 57 " clip-rule="nonzero"/></clipPath></defs><path fill="#014b3c" d="M 82.210938 59.734375 C 82.488281 59.738281 82.710938 59.515625 82.714844 59.242188 C 82.714844 59.230469 82.714844 59.21875 82.714844 59.207031 C 82.714844 58.835938 82.488281 58.65625 82.027344 58.65625 L 81.28125 58.65625 L 81.28125 60.609375 L 81.5625 60.609375 L 81.5625 59.757812 L 81.90625 59.757812 L 81.914062 59.769531 L 82.449219 60.609375 L 82.75 60.609375 L 82.171875 59.738281 L 82.210938 59.730469 Z M 81.886719 59.539062 L 81.5625 59.539062 L 81.5625 58.878906 L 81.976562 58.878906 C 82.1875 58.878906 82.429688 58.914062 82.429688 59.191406 C 82.429688 59.511719 82.183594 59.539062 81.886719 59.539062 " fill-opacity="1" fill-rule="nonzero"/><g clip-path="url(#afe5f75534)"><path fill="#014b3c" d="M 74.886719 57.285156 L 70.902344 57.285156 L 70.902344 51.050781 C 70.902344 49.5625 70.878906 47.648438 68.832031 47.648438 C 66.789062 47.648438 66.441406 49.269531 66.441406 50.941406 L 66.441406 57.285156 L 62.457031 57.285156 L 62.457031 44.460938 L 66.28125 44.460938 L 66.28125 46.214844 L 66.335938 46.214844 C 67.113281 44.882812 68.5625 44.085938 70.105469 44.144531 C 74.144531 44.144531 74.886719 46.796875 74.886719 50.25 Z M 57.96875 42.707031 C 56.691406 42.707031 55.65625 41.675781 55.65625 40.398438 C 55.652344 39.121094 56.6875 38.085938 57.964844 38.085938 C 59.242188 38.085938 60.277344 39.121094 60.277344 40.394531 C 60.277344 41.671875 59.242188 42.707031 57.96875 42.707031 M 59.957031 57.285156 L 55.972656 57.285156 L 55.972656 44.460938 L 59.957031 44.460938 Z M 76.871094 34.386719 L 53.972656 34.386719 C 52.890625 34.378906 52 35.242188 51.988281 36.328125 L 51.988281 59.320312 C 52 60.40625 52.890625 61.273438 53.972656 61.261719 L 76.871094 61.261719 C 77.957031 61.273438 78.847656 60.40625 78.863281 59.320312 L 78.863281 36.324219 C 78.847656 35.238281 77.957031 34.375 76.871094 34.386719 " fill-opacity="1" fill-rule="nonzero"/></g><g clip-path="url(#5fdfb09482)"><path fill="#014b3c" d="M 81.921875 57.785156 C 80.910156 57.796875 80.097656 58.625 80.105469 59.636719 C 80.117188 60.648438 80.945312 61.460938 81.957031 61.449219 C 82.96875 61.441406 83.78125 60.613281 83.773438 59.601562 C 83.761719 58.601562 82.953125 57.796875 81.957031 57.785156 L 81.921875 57.785156 M 81.921875 61.242188 C 81.035156 61.257812 80.300781 60.546875 80.289062 59.660156 C 80.273438 58.773438 80.980469 58.042969 81.867188 58.027344 C 82.753906 58.011719 83.484375 58.71875 83.5 59.605469 L 83.5 59.632812 C 83.519531 60.5 82.832031 61.21875 81.964844 61.238281 L 81.921875 61.238281 " fill-opacity="1" fill-rule="nonzero"/></g></svg>