<svg xmlns="http://www.w3.org/2000/svg" xmlns:xlink="http://www.w3.org/1999/xlink" width="379" zoomAndPan="magnify" viewBox="0 0 284.25 200.249992" height="267" preserveAspectRatio="xMidYMid meet" version="1.0"><defs><clipPath id="b80fe11ce8"><path d="M 127.933594 85.835938 L 154 85.835938 L 154 112 L 127.933594 112 Z M 127.933594 85.835938 " clip-rule="nonzero"/></clipPath><clipPath id="20afe21fb0"><path d="M 129 87 L 154.832031 87 L 154.832031 112.734375 L 129 112.734375 Z M 129 87 " clip-rule="nonzero"/></clipPath><clipPath id="0dc9bf4a42"><path d="M 128 86 L 154.832031 86 L 154.832031 112.734375 L 128 112.734375 Z M 128 86 " clip-rule="nonzero"/></clipPath></defs><g clip-path="url(#b80fe11ce8)"><path fill="#1c1815" d="M 147.554688 111.703125 L 134.164062 111.703125 C 130.730469 111.703125 127.933594 108.90625 127.933594 105.457031 L 127.933594 92.070312 C 127.933594 88.632812 130.730469 85.835938 134.164062 85.835938 L 147.554688 85.835938 C 151.003906 85.835938 153.789062 88.632812 153.789062 92.070312 L 153.789062 105.457031 C 153.800781 108.90625 151.003906 111.703125 147.554688 111.703125 Z M 147.554688 111.703125 " fill-opacity="1" fill-rule="nonzero"/></g><g clip-path="url(#20afe21fb0)"><path fill="#fe2c55" d="M 148.808594 112.945312 L 135.421875 112.945312 C 131.972656 112.945312 129.1875 110.144531 129.1875 106.710938 L 129.1875 93.324219 C 129.1875 89.875 131.972656 87.089844 135.421875 87.089844 L 148.808594 87.089844 C 152.257812 87.089844 155.042969 89.890625 155.042969 93.324219 L 155.042969 106.710938 C 155.042969 110.160156 152.257812 112.945312 148.808594 112.945312 Z M 148.808594 112.945312 " fill-opacity="1" fill-rule="nonzero"/></g><g clip-path="url(#0dc9bf4a42)"><path fill="#014b3c" d="M 148.1875 112.324219 L 134.800781 112.324219 C 131.351562 112.324219 128.566406 109.527344 128.566406 106.09375 L 128.566406 92.703125 C 128.566406 89.253906 131.367188 86.46875 134.800781 86.46875 L 148.1875 86.46875 C 151.636719 86.46875 154.421875 89.269531 154.421875 92.703125 L 154.421875 106.09375 C 154.421875 109.527344 151.625 112.324219 148.1875 112.324219 Z M 148.1875 112.324219 " fill-opacity="1" fill-rule="nonzero"/></g><path fill="#1c1815" d="M 145.867188 96.730469 C 145.695312 96.253906 145.417969 95.847656 145.117188 95.472656 C 144.84375 95.128906 144.554688 94.796875 144.28125 94.464844 C 143.992188 94.132812 143.730469 93.800781 143.457031 93.511719 C 143.183594 93.207031 142.9375 92.949219 142.765625 92.675781 C 142.679688 92.53125 142.621094 92.398438 142.578125 92.242188 L 142.5625 92.183594 C 142.546875 92.15625 142.546875 92.140625 142.535156 92.113281 C 142.492188 92.011719 142.433594 91.925781 142.332031 91.835938 C 142.144531 91.679688 141.914062 91.605469 141.695312 91.648438 C 141.480469 91.679688 141.25 91.808594 141.121094 92.023438 C 141.0625 92.125 141.019531 92.257812 141.019531 92.34375 C 141.019531 92.371094 141.019531 92.386719 141.019531 92.414062 L 141.019531 102.125 C 140.601562 101.921875 140.125 101.808594 139.605469 101.808594 C 138.003906 101.808594 136.71875 102.933594 136.71875 104.316406 C 136.71875 105.703125 138.019531 106.828125 139.605469 106.828125 C 141.089844 106.828125 142.304688 105.859375 142.476562 104.605469 L 142.492188 104.605469 L 142.492188 104.402344 C 142.492188 104.375 142.492188 104.347656 142.492188 104.316406 C 142.492188 104.289062 142.492188 104.261719 142.492188 104.230469 L 142.492188 94.839844 C 142.75 95.082031 143.011719 95.285156 143.285156 95.503906 C 143.628906 95.777344 143.960938 96.050781 144.308594 96.308594 C 144.597656 96.554688 144.898438 96.816406 145.117188 97.117188 C 145.316406 97.421875 145.605469 97.882812 145.605469 98.273438 C 145.621094 98.660156 145.535156 99.109375 145.289062 99.484375 C 145.664062 99.253906 145.808594 98.707031 145.953125 98.230469 C 146.097656 97.738281 146.039062 97.203125 145.867188 96.730469 Z M 141.132812 92.601562 C 141.132812 92.617188 141.148438 92.632812 141.148438 92.632812 C 141.148438 92.617188 141.132812 92.585938 141.132812 92.601562 Z M 142.503906 92.429688 C 142.503906 92.429688 142.503906 92.414062 142.503906 92.429688 Z M 142.503906 92.429688 " fill-opacity="1" fill-rule="nonzero"/><path fill="#fe2c55" d="M 146.054688 96.785156 C 145.996094 96.613281 145.925781 96.453125 145.824219 96.296875 C 145.722656 96.121094 145.59375 95.976562 145.460938 95.820312 C 145.449219 95.804688 145.449219 95.804688 145.433594 95.789062 C 145.160156 95.445312 144.871094 95.113281 144.597656 94.78125 C 144.308594 94.449219 144.046875 94.117188 143.773438 93.828125 C 143.5 93.527344 143.253906 93.265625 143.082031 92.992188 C 142.996094 92.847656 142.9375 92.71875 142.894531 92.558594 L 142.878906 92.5 C 142.867188 92.472656 142.867188 92.457031 142.851562 92.429688 C 142.808594 92.328125 142.75 92.242188 142.648438 92.15625 C 142.460938 91.996094 142.230469 91.925781 142.015625 91.96875 C 141.796875 91.996094 141.566406 92.125 141.4375 92.34375 C 141.378906 92.445312 141.335938 92.574219 141.335938 92.660156 C 141.335938 92.6875 141.335938 92.703125 141.335938 92.730469 L 141.335938 102.441406 C 140.917969 102.238281 140.441406 102.125 139.921875 102.125 C 138.320312 102.125 137.035156 103.25 137.035156 104.636719 C 137.035156 106.019531 138.335938 107.144531 139.921875 107.144531 C 141.410156 107.144531 142.621094 106.179688 142.792969 104.921875 L 142.808594 104.921875 L 142.808594 104.722656 C 142.808594 104.691406 142.808594 104.664062 142.808594 104.636719 C 142.808594 104.605469 142.808594 104.578125 142.808594 104.546875 L 142.808594 95.15625 C 143.066406 95.402344 143.328125 95.601562 143.601562 95.820312 C 143.949219 96.09375 144.28125 96.367188 144.625 96.628906 C 144.914062 96.871094 145.21875 97.132812 145.433594 97.4375 C 145.636719 97.738281 145.792969 98.085938 145.808594 98.472656 C 145.824219 98.863281 145.535156 99.109375 145.289062 99.46875 C 145.664062 99.238281 146.023438 98.835938 146.167969 98.359375 C 146.328125 97.882812 146.242188 97.347656 146.082031 96.886719 C 146.082031 96.84375 146.070312 96.816406 146.054688 96.785156 Z M 141.464844 92.933594 C 141.464844 92.949219 141.480469 92.964844 141.480469 92.964844 C 141.464844 92.949219 141.453125 92.90625 141.464844 92.933594 Z M 142.824219 92.761719 C 142.824219 92.746094 142.824219 92.746094 142.824219 92.761719 C 142.824219 92.746094 142.824219 92.746094 142.824219 92.761719 Z M 142.824219 92.761719 " fill-opacity="1" fill-rule="nonzero"/><path fill="#ffffff" d="M 146.023438 96.886719 C 145.851562 96.410156 145.578125 96.007812 145.273438 95.632812 C 145 95.285156 144.710938 94.953125 144.4375 94.621094 C 144.148438 94.289062 143.890625 93.957031 143.617188 93.671875 C 143.339844 93.367188 143.097656 93.105469 142.921875 92.832031 C 142.835938 92.6875 142.777344 92.558594 142.734375 92.398438 L 142.722656 92.34375 C 142.707031 92.3125 142.707031 92.300781 142.691406 92.269531 C 142.648438 92.167969 142.589844 92.082031 142.492188 91.996094 C 142.304688 91.835938 142.070312 91.765625 141.855469 91.808594 C 141.640625 91.835938 141.410156 91.96875 141.277344 92.183594 C 141.222656 92.285156 141.175781 92.414062 141.175781 92.5 C 141.175781 92.53125 141.175781 92.542969 141.175781 92.574219 L 141.175781 102.285156 C 140.757812 102.082031 140.28125 101.964844 139.765625 101.964844 C 138.164062 101.964844 136.878906 103.089844 136.878906 104.476562 C 136.878906 105.859375 138.175781 106.988281 139.765625 106.988281 C 141.25 106.988281 142.460938 106.019531 142.636719 104.765625 L 142.648438 104.765625 L 142.648438 104.5625 C 142.648438 104.535156 142.648438 104.503906 142.648438 104.476562 C 142.648438 104.449219 142.648438 104.417969 142.648438 104.390625 L 142.648438 94.996094 C 142.910156 95.242188 143.167969 95.445312 143.441406 95.660156 C 143.789062 95.933594 144.121094 96.210938 144.46875 96.46875 C 144.753906 96.714844 145.058594 96.972656 145.273438 97.277344 C 145.476562 97.578125 145.636719 97.925781 145.648438 98.316406 C 145.664062 98.707031 145.535156 99.125 145.289062 99.484375 C 145.664062 99.253906 145.96875 98.863281 146.113281 98.386719 C 146.257812 97.898438 146.199219 97.363281 146.023438 96.886719 Z M 141.308594 92.761719 C 141.308594 92.777344 141.320312 92.789062 141.320312 92.789062 C 141.308594 92.789062 141.292969 92.746094 141.308594 92.761719 Z M 142.664062 92.585938 C 142.664062 92.585938 142.664062 92.574219 142.664062 92.585938 Z M 142.664062 92.585938 " fill-opacity="1" fill-rule="nonzero"/></svg>