<svg xmlns="http://www.w3.org/2000/svg" xmlns:xlink="http://www.w3.org/1999/xlink" width="182" zoomAndPan="magnify" viewBox="0 0 136.5 95.999999" height="128" preserveAspectRatio="xMidYMid meet" version="1.0"><defs><clipPath id="6600d96b56"><path d="M 54.328125 34.359375 L 81.230469 34.359375 L 81.230469 61.261719 L 54.328125 61.261719 Z M 54.328125 34.359375 " clip-rule="nonzero"/></clipPath><clipPath id="451b41f4f5"><path d="M 61 39 L 75 39 L 75 61.261719 L 61 61.261719 Z M 61 39 " clip-rule="nonzero"/></clipPath></defs><g clip-path="url(#6600d96b56)"><path fill="#014b3c" d="M 81.445312 47.917969 C 81.445312 40.429688 75.375 34.359375 67.886719 34.359375 C 60.402344 34.359375 54.328125 40.429688 54.328125 47.917969 C 54.328125 54.277344 58.707031 59.613281 64.613281 61.078125 L 64.613281 52.0625 L 61.816406 52.0625 L 61.816406 47.917969 L 64.613281 47.917969 L 64.613281 46.132812 C 64.613281 41.519531 66.699219 39.378906 71.230469 39.378906 C 72.089844 39.378906 73.570312 39.546875 74.179688 39.714844 L 74.179688 43.472656 C 73.859375 43.4375 73.300781 43.421875 72.613281 43.421875 C 70.390625 43.421875 69.53125 44.261719 69.53125 46.453125 L 69.53125 47.917969 L 73.957031 47.917969 L 73.199219 52.058594 L 69.53125 52.058594 L 69.53125 61.375 C 76.242188 60.566406 81.445312 54.847656 81.445312 47.917969 Z M 81.445312 47.917969 " fill-opacity="1" fill-rule="nonzero"/></g><g clip-path="url(#451b41f4f5)"><path fill="#ffffff" d="M 73.199219 52.058594 L 73.960938 47.917969 L 69.53125 47.917969 L 69.53125 46.453125 C 69.53125 44.261719 70.390625 43.421875 72.613281 43.421875 C 73.304688 43.421875 73.859375 43.4375 74.179688 43.472656 L 74.179688 39.714844 C 73.574219 39.546875 72.089844 39.378906 71.230469 39.378906 C 66.703125 39.378906 64.613281 41.519531 64.613281 46.132812 L 64.613281 47.917969 L 61.816406 47.917969 L 61.816406 52.0625 L 64.613281 52.0625 L 64.613281 61.078125 C 65.664062 61.335938 66.757812 61.476562 67.890625 61.476562 C 68.445312 61.476562 68.992188 61.441406 69.53125 61.375 L 69.53125 52.0625 L 73.199219 52.0625 Z M 73.199219 52.058594 " fill-opacity="1" fill-rule="nonzero"/></g></svg>