<svg xmlns="http://www.w3.org/2000/svg" xmlns:xlink="http://www.w3.org/1999/xlink" width="182" zoomAndPan="magnify" viewBox="0 0 136.5 95.999999" height="128" preserveAspectRatio="xMidYMid meet" version="1.0"><defs><clipPath id="434072bad3"><path d="M 54.328125 34.359375 L 81.230469 34.359375 L 81.230469 61.261719 L 54.328125 61.261719 Z M 54.328125 34.359375 " clip-rule="nonzero"/></clipPath></defs><g clip-path="url(#434072bad3)"><path fill="#014b3c" d="M 62.269531 34.453125 C 60.828125 34.519531 59.839844 34.75 58.980469 35.089844 C 58.089844 35.4375 57.335938 35.902344 56.582031 36.65625 C 55.832031 37.410156 55.371094 38.167969 55.027344 39.058594 C 54.691406 39.921875 54.464844 40.90625 54.402344 42.351562 C 54.339844 43.792969 54.324219 44.253906 54.332031 47.9375 C 54.335938 51.613281 54.355469 52.078125 54.421875 53.523438 C 54.492188 54.964844 54.722656 55.949219 55.058594 56.808594 C 55.40625 57.703125 55.871094 58.453125 56.625 59.207031 C 57.378906 59.960938 58.136719 60.421875 59.03125 60.765625 C 59.890625 61.097656 60.878906 61.324219 62.320312 61.386719 C 63.765625 61.453125 64.226562 61.464844 67.90625 61.457031 C 71.585938 61.453125 72.046875 61.433594 73.492188 61.367188 C 74.933594 61.296875 75.917969 61.066406 76.777344 60.730469 C 77.671875 60.382812 78.425781 59.917969 79.175781 59.164062 C 79.925781 58.410156 80.390625 57.652344 80.734375 56.761719 C 81.066406 55.898438 81.292969 54.914062 81.355469 53.472656 C 81.417969 52.027344 81.433594 51.5625 81.429688 47.882812 C 81.421875 44.207031 81.40625 43.746094 81.335938 42.300781 C 81.269531 40.855469 81.039062 39.871094 80.699219 39.011719 C 80.351562 38.117188 79.890625 37.367188 79.132812 36.613281 C 78.378906 35.863281 77.625 35.398438 76.730469 35.054688 C 75.867188 34.722656 74.882812 34.496094 73.441406 34.433594 C 71.996094 34.367188 71.53125 34.355469 67.855469 34.359375 C 64.175781 34.367188 63.714844 34.382812 62.269531 34.453125 M 62.425781 58.949219 C 61.105469 58.890625 60.386719 58.671875 59.910156 58.488281 C 59.277344 58.242188 58.824219 57.949219 58.347656 57.476562 C 57.875 57.003906 57.578125 56.550781 57.332031 55.921875 C 57.148438 55.445312 56.921875 54.726562 56.859375 53.40625 C 56.792969 51.976562 56.777344 51.546875 56.773438 47.929688 C 56.765625 44.3125 56.777344 43.886719 56.839844 42.457031 C 56.898438 41.136719 57.117188 40.417969 57.300781 39.941406 C 57.546875 39.308594 57.839844 38.855469 58.3125 38.378906 C 58.785156 37.90625 59.238281 37.609375 59.867188 37.363281 C 60.347656 37.175781 61.0625 36.953125 62.382812 36.890625 C 63.8125 36.824219 64.238281 36.808594 67.859375 36.800781 C 71.476562 36.792969 71.90625 36.808594 73.332031 36.871094 C 74.652344 36.929688 75.371094 37.148438 75.847656 37.332031 C 76.484375 37.578125 76.933594 37.867188 77.410156 38.34375 C 77.886719 38.816406 78.179688 39.265625 78.425781 39.898438 C 78.613281 40.375 78.835938 41.09375 78.898438 42.414062 C 78.964844 43.839844 78.980469 44.269531 78.988281 47.886719 C 78.992188 51.503906 78.980469 51.933594 78.917969 53.363281 C 78.859375 54.683594 78.640625 55.402344 78.457031 55.878906 C 78.210938 56.511719 77.917969 56.964844 77.445312 57.4375 C 76.972656 57.910156 76.523438 58.207031 75.890625 58.453125 C 75.414062 58.640625 74.695312 58.863281 73.375 58.925781 C 71.945312 58.992188 71.519531 59.007812 67.898438 59.015625 C 64.285156 59.023438 63.855469 59.007812 62.425781 58.945312 M 73.472656 40.667969 C 73.472656 41.566406 74.203125 42.292969 75.101562 42.289062 C 76 42.289062 76.726562 41.558594 76.722656 40.660156 C 76.722656 39.761719 75.992188 39.035156 75.09375 39.039062 C 74.195312 39.039062 73.46875 39.769531 73.472656 40.664062 M 60.921875 47.921875 C 60.929688 51.765625 64.050781 54.875 67.890625 54.867188 C 71.734375 54.859375 74.84375 51.738281 74.835938 47.894531 C 74.828125 44.054688 71.707031 40.945312 67.867188 40.953125 C 64.023438 40.960938 60.914062 44.082031 60.921875 47.921875 M 63.363281 47.917969 C 63.359375 45.421875 65.375 43.398438 67.871094 43.394531 C 70.363281 43.386719 72.390625 45.40625 72.394531 47.902344 C 72.402344 50.394531 70.382812 52.421875 67.886719 52.425781 C 65.394531 52.429688 63.367188 50.410156 63.363281 47.917969 " fill-opacity="1" fill-rule="nonzero"/></g></svg>